<svg xmlns="http://www.w3.org/2000/svg" viewBox="0 0 100 100">
  <circle cx="50" cy="50" r="50" fill="#007e00" />
  
  <!-- Left swoosh -->
  <path d="M 45,75 C 20,72 15,35 30,22 C 16,35 15,68 45,80 Z" fill="#ffffff" />
  <!-- Bottom right swoosh -->
  <path d="M 40,75 C 60,82 78,75 82,60 C 76,70 60,78 40,70 Z" fill="#ffffff" />

  <!-- Bag Handle -->
  <path d="M 38,32 C 38,20 62,20 62,32" fill="none" stroke="#ffffff" stroke-width="2.5" stroke-linecap="round" />
  
  <!-- Shopping Bag Body -->
  <path d="M 32,32 L 68,32 L 73,65 C 74,70 70,75 55,77 C 40,75 31,70 31,65 Z" fill="#ffffff" />
  
  <!-- Handle attachment dots -->
  <circle cx="39" cy="34" r="1.5" fill="#007e00" />
  <circle cx="61" cy="34" r="1.5" fill="#007e00" />

  <!-- Green 'S' inside bag -->
  <path d="M 58,42 C 54,38 46,38 43,42 C 39,46 47,49 50,51 C 56,54 58,60 55,64 C 50,68 42,68 38,64 L 40,61 C 43,65 50,65 53,61 C 56,58 51,55 48,53 C 42,50 40,44 44,40 C 48,35 55,35 60,40 Z" fill="#007e00" />
</svg>
